<?xml version="1.0" standalone="no"?>
<!DOCTYPE svg PUBLIC "-//W3C//DTD SVG 20010904//EN"
 "http://www.w3.org/TR/2001/REC-SVG-20010904/DTD/svg10.dtd">
<svg version="1.0" xmlns="http://www.w3.org/2000/svg"
 width="1638.000000pt" height="1638.000000pt" viewBox="0 0 1638.000000 1638.000000"
 preserveAspectRatio="xMidYMid meet">
<metadata>
Created by potrace 1.16, written by Peter Selinger 2001-2019
</metadata>
<g transform="translate(0.000000,1638.000000) scale(0.100000,-0.100000)"
fill="#000000" stroke="none">
<path d="M0 8190 l0 -8190 8190 0 8190 0 0 8190 0 8190 -8190 0 -8190 0 0
-8190z m13504 6161 c8 -7 12 -20 9 -29 -4 -13 -3 -14 5 -3 14 20 42 -25 42
-68 0 -61 -71 -286 -135 -426 -51 -111 -65 -144 -65 -149 0 -2 -20 -39 -45
-80 -25 -42 -45 -78 -45 -81 0 -9 -91 -140 -181 -260 -87 -115 -281 -325 -365
-395 -16 -14 -59 -50 -94 -80 -129 -110 -218 -173 -232 -164 -7 4 -8 2 -4 -4
7 -12 -189 -146 -216 -146 -9 0 -16 -4 -15 -9 1 -4 -16 -19 -38 -31 -22 -13
-80 -47 -130 -76 -97 -57 -206 -110 -223 -110 -6 0 -12 -4 -14 -8 -3 -8 -127
-65 -308 -140 -161 -68 -495 -182 -735 -251 -279 -80 -874 -208 -1268 -271
-70 -11 -133 -23 -140 -25 -40 -15 -839 -115 -1037 -130 -41 -4 -167 -15 -280
-25 -113 -10 -272 -24 -355 -30 -82 -6 -260 -20 -395 -30 -227 -18 -545 -38
-965 -60 -93 -5 -208 -11 -255 -14 -47 -3 -146 -8 -220 -11 -74 -3 -261 -12
-415 -20 -154 -8 -374 -19 -490 -25 -235 -13 -297 -18 -307 -28 -8 -8 -63
-268 -84 -397 -8 -49 -23 -135 -34 -190 -11 -55 -42 -219 -70 -365 -28 -146
-60 -310 -72 -365 -11 -55 -22 -111 -24 -126 -3 -14 -20 -104 -39 -200 -20
-95 -37 -187 -40 -202 -6 -41 -34 -187 -57 -302 -11 -55 -26 -133 -32 -173 -6
-43 -15 -70 -20 -65 -5 4 -6 3 -2 -4 6 -10 -13 -126 -54 -338 -10 -51 -56
-318 -91 -525 -10 -63 -30 -189 -44 -280 -13 -91 -27 -176 -30 -190 -11 -53
-91 -682 -115 -905 -22 -217 -40 -419 -50 -576 -25 -423 -29 -545 -20 -804 7
-233 12 -284 33 -376 30 -125 53 -174 102 -217 44 -40 87 -42 153 -8 75 39
198 174 308 339 87 130 114 173 121 187 12 25 132 224 143 237 5 7 10 17 10
23 0 6 17 41 38 78 67 118 237 471 316 655 42 98 76 180 76 182 0 2 13 32 29
67 16 35 40 92 54 128 14 36 51 130 82 210 31 80 67 172 80 205 13 33 36 96
51 139 22 62 29 75 36 60 6 -15 7 -13 3 7 -4 22 31 140 68 229 6 14 11 27 12
30 1 3 6 20 10 38 4 17 12 32 17 32 5 0 7 4 4 8 -4 7 9 50 57 182 6 17 90 281
140 443 18 59 36 105 39 102 3 -3 5 7 5 22 1 45 133 474 154 502 29 37 86 69
134 77 88 13 175 -37 175 -101 0 -26 -66 -273 -87 -325 -3 -8 -8 -24 -10 -35
-9 -49 -110 -354 -116 -349 -3 3 -3 -4 0 -17 4 -15 3 -20 -5 -15 -8 4 -10 2
-6 -8 6 -15 -180 -585 -216 -662 -10 -23 -22 -55 -26 -70 -10 -42 -190 -520
-219 -582 -14 -29 -25 -58 -25 -65 0 -7 -7 -23 -16 -35 -8 -12 -13 -22 -10
-22 4 0 -54 -141 -84 -205 -5 -11 -19 -44 -30 -74 -21 -54 -34 -84 -95 -217
-58 -126 -96 -205 -192 -399 -136 -276 -171 -340 -184 -337 -6 1 -8 -2 -4 -8
4 -6 -34 -77 -82 -158 -49 -81 -96 -158 -104 -172 -8 -14 -16 -27 -19 -30 -3
-3 -18 -24 -34 -47 -16 -24 -33 -40 -39 -36 -6 3 -7 1 -3 -5 7 -12 -79 -140
-163 -242 -60 -73 -68 -80 -75 -75 -3 3 -4 2 -1 -1 8 -11 -48 -75 -61 -70 -8
3 -11 0 -8 -8 3 -8 -36 -52 -93 -105 -247 -232 -509 -351 -773 -351 -131 0
-266 53 -367 142 -50 46 -144 193 -137 215 4 13 3 14 -3 5 -7 -8 -16 3 -31 40
-81 200 -117 401 -142 778 -30 472 3 1022 105 1745 32 223 54 389 61 445 11
104 45 336 50 350 4 8 8 33 10 55 3 33 20 134 48 290 2 11 7 46 11 78 4 31 12
57 17 57 6 0 7 8 4 17 -4 9 -2 39 3 67 18 90 59 314 111 601 54 300 63 345
195 1020 105 533 108 552 134 690 61 322 81 441 81 477 0 21 3 37 8 35 4 -3 8
15 9 39 2 51 13 48 -129 33 -343 -35 -739 -91 -958 -135 -241 -49 -562 -134
-655 -174 -11 -5 -31 -12 -45 -16 -45 -12 -266 -121 -316 -154 -27 -19 -70
-51 -96 -72 -28 -23 -52 -36 -59 -32 -8 5 -9 3 -4 -6 5 -8 2 -17 -7 -24 -8 -6
-35 -37 -60 -68 -25 -31 -49 -53 -53 -50 -4 4 -6 0 -5 -8 4 -26 0 -41 -9 -36
-5 3 -9 -4 -9 -17 0 -31 -45 -126 -78 -165 -65 -77 -174 -110 -257 -78 -39 15
-100 65 -98 80 0 3 -2 13 -6 22 -11 29 17 146 52 216 64 128 171 271 255 344
14 12 41 36 60 53 120 107 378 251 598 335 727 275 1658 397 3972 517 102 5
300 13 440 19 140 5 314 14 385 20 72 6 178 10 237 8 58 -2 104 0 101 5 -2 4
0 7 4 7 130 0 769 38 1118 66 589 47 1330 140 1730 215 88 17 205 39 260 49
501 94 1082 267 1517 452 242 102 609 296 716 378 15 11 72 53 127 94 145 105
336 283 430 401 22 28 42 52 45 55 3 3 17 21 30 40 14 19 28 40 33 45 75 91
225 379 278 532 16 48 33 95 36 103 3 8 8 26 10 39 11 65 92 167 156 196 39
18 188 15 211 -4z m-2033 -3451 c11 -6 19 -21 19 -36 0 -39 -105 -471 -185
-764 -238 -862 -548 -1707 -856 -2330 -238 -482 -400 -728 -634 -964 -185
-187 -353 -301 -515 -351 -72 -22 -258 -31 -331 -16 -245 51 -396 271 -455
661 -9 66 -17 208 -21 380 -5 305 6 499 53 867 26 203 27 212 10 238 -10 15
-33 33 -52 41 -61 26 -74 12 -204 -221 -254 -457 -466 -752 -708 -987 -135
-131 -227 -202 -358 -277 -164 -95 -301 -137 -474 -147 -177 -11 -289 19 -398
105 -113 90 -177 215 -218 426 -26 135 -24 475 5 700 41 313 99 573 246 1090
40 143 87 312 105 375 59 213 130 427 150 453 31 39 174 131 281 181 344 159
709 180 709 39 0 -12 -54 -204 -121 -425 -206 -689 -303 -1113 -344 -1503 -47
-446 20 -729 182 -774 58 -17 93 -13 152 15 199 92 440 418 720 974 192 380
445 1004 593 1460 105 323 110 332 227 419 217 161 451 237 705 229 92 -2 119
-7 159 -27 52 -25 77 -61 77 -111 0 -17 -40 -194 -89 -393 -174 -701 -255
-1127 -310 -1622 -57 -513 -52 -1104 11 -1280 34 -95 109 -152 186 -141 130
18 252 163 425 504 341 672 734 1793 986 2812 39 157 80 303 91 325 37 72 121
107 181 75z m376 -1900 c24 0 73 -53 83 -90 26 -98 -72 -183 -169 -144 -22 8
-48 27 -57 42 -22 33 -24 100 -4 137 17 32 85 68 115 60 11 -3 25 -5 32 -5z
m4245 -603 c48 -20 55 -35 29 -61 -19 -18 -30 -20 -84 -16 -239 17 -408 -32
-605 -177 -135 -99 -320 -301 -436 -473 -32 -47 -61 -84 -65 -83 -4 1 -8 -3
-8 -10 0 -7 -35 -72 -77 -145 -166 -288 -361 -714 -445 -972 -12 -36 -26 -74
-31 -85 -6 -11 -32 -86 -58 -168 -27 -81 -52 -144 -57 -140 -4 5 -5 3 -2 -3 7
-12 -60 -265 -86 -324 -22 -51 -66 -97 -109 -115 -110 -45 -321 13 -410 114
-36 40 -59 76 -53 84 3 4 2 5 -1 2 -17 -12 -130 204 -120 231 3 8 2 13 -3 9
-24 -14 -111 295 -137 490 -3 22 -10 44 -14 49 -13 13 -223 7 -285 -9 -30 -8
-73 -26 -95 -40 -23 -14 -45 -23 -51 -20 -5 4 -8 2 -7 -3 2 -5 -20 -31 -48
-58 -48 -45 -144 -176 -144 -196 0 -5 -5 -6 -12 -2 -7 4 -8 3 -4 -4 4 -6 0
-22 -8 -34 -15 -25 -64 -173 -91 -278 -15 -55 -16 -92 -10 -245 4 -99 8 -203
9 -232 0 -28 4 -47 7 -42 6 11 29 -129 29 -178 0 -37 -19 -85 -31 -78 -4 3
-10 -3 -14 -14 -3 -11 -20 -24 -37 -30 -63 -22 -184 -5 -147 21 10 7 8 8 -7 3
-15 -4 -30 3 -53 27 -17 17 -31 35 -31 39 0 4 -6 14 -13 21 -18 18 -82 153
-101 213 -23 76 -44 205 -57 358 -14 167 -28 175 -56 35 -3 -16 -10 -28 -15
-28 -5 0 -7 -4 -3 -9 7 -13 -40 -173 -49 -164 -4 4 -4 0 -1 -9 4 -9 -5 -59
-19 -110 -14 -51 -31 -111 -37 -133 -62 -227 -126 -371 -195 -435 -151 -140
-513 -58 -647 146 -76 116 -114 224 -138 393 -7 50 -16 91 -19 91 -4 0 -26
-60 -50 -132 -54 -170 -107 -291 -122 -282 -5 3 -8 2 -7 -3 4 -22 -4 -37 -43
-80 -97 -105 -227 -112 -415 -22 -83 40 -167 120 -176 169 -11 52 -25 280 -33
518 -8 243 2 227 -105 170 -161 -84 -351 -355 -517 -733 l-35 -80 -2 -275 c-1
-231 -5 -294 -23 -395 -37 -209 -85 -377 -156 -549 -20 -48 -35 -93 -32 -100
2 -6 5 -3 5 7 1 12 10 17 34 17 78 0 493 31 722 55 502 50 1078 125 1360 175
94 17 195 35 225 40 30 4 89 16 130 25 41 9 98 20 125 25 28 5 93 18 145 30
52 12 127 28 165 36 39 8 102 23 140 34 39 10 122 33 185 50 158 43 398 116
500 152 139 50 383 145 453 178 36 16 68 30 71 30 24 0 469 235 521 275 10 8
23 15 28 15 17 0 275 191 368 272 122 107 253 241 323 330 16 21 34 35 39 31
6 -3 7 -1 3 6 -4 6 5 28 22 49 16 20 52 72 80 114 27 42 53 74 57 70 5 -4 5
-2 2 5 -4 6 8 37 26 70 18 32 48 93 67 136 23 53 36 73 43 65 5 -8 6 -5 2 9
-4 14 5 55 24 105 16 46 35 102 42 125 6 23 16 40 20 37 5 -3 6 2 3 10 -13 35
89 168 117 151 8 -5 10 -4 5 3 -14 23 67 39 171 34 35 -2 46 -8 72 -41 53 -66
50 -97 -31 -336 -71 -211 -126 -329 -269 -570 -12 -22 -26 -42 -29 -45 -3 -3
-25 -34 -49 -70 -25 -36 -56 -79 -70 -97 -14 -17 -39 -48 -56 -70 -75 -96
-311 -329 -331 -327 -8 1 -12 -2 -9 -5 12 -21 -275 -244 -302 -235 -12 4 -14
3 -6 -3 9 -7 -3 -21 -45 -50 -112 -79 -273 -174 -284 -167 -7 4 -8 3 -4 -4 4
-7 5 -12 2 -12 -2 0 -12 -3 -22 -7 -13 -5 -15 -3 -9 8 4 8 6 12 2 9 -3 -3 -6
-9 -8 -15 -3 -15 -21 -26 -149 -92 -170 -88 -593 -273 -623 -273 -5 0 -25 -7
-45 -16 -21 -9 -46 -20 -57 -25 -11 -4 -94 -31 -185 -59 -91 -28 -199 -62
-240 -75 -164 -52 -406 -112 -600 -150 -74 -14 -144 -30 -155 -35 -11 -5 -49
-13 -85 -19 -36 -5 -119 -21 -185 -35 -571 -121 -1527 -243 -2454 -312 -163
-12 -225 -13 -230 -5 -4 7 -39 -23 -87 -75 -244 -266 -334 -319 -628 -369
-180 -31 -343 -34 -426 -9 -165 49 -243 132 -275 291 -7 37 -14 62 -14 56 -1
-8 -17 -13 -43 -13 -100 0 -1027 -63 -1318 -90 -113 -11 -268 -24 -345 -30
-176 -14 -652 -66 -765 -84 -47 -8 -121 -19 -165 -26 -454 -67 -906 -183
-1180 -302 -135 -58 -157 -69 -211 -104 -30 -19 -59 -32 -64 -29 -6 4 -9 1 -8
-7 2 -7 -3 -12 -10 -10 -6 1 -11 -2 -10 -7 2 -4 -23 -29 -54 -55 -92 -75 -162
-165 -193 -248 -66 -177 -118 -227 -245 -236 -78 -5 -154 12 -146 33 3 8 1 14
-5 12 -13 -3 -49 61 -49 87 0 80 96 285 188 401 177 225 482 424 857 560 72
26 139 51 150 56 18 7 170 50 331 93 150 40 515 109 789 150 224 34 417 56
426 50 6 -3 21 -2 32 4 32 15 940 101 1495 142 78 5 206 15 285 21 78 7 215
12 303 13 89 1 160 4 158 7 -2 3 40 9 94 13 111 7 185 13 327 26 55 5 155 12
223 16 117 7 122 6 115 -12 -3 -10 -11 -22 -17 -26 -8 -5 -7 -8 1 -8 7 0 17 9
23 20 6 11 22 32 36 47 39 42 158 295 198 418 45 144 98 415 80 415 -4 0 -37
-17 -73 -37 -264 -148 -540 -374 -726 -597 -54 -65 -149 -202 -157 -228 -2 -6
-38 -17 -79 -24 -89 -16 -129 -17 -129 -5 0 13 89 166 140 241 59 86 201 250
297 342 167 159 379 312 618 448 61 35 112 64 114 66 2 2 -4 47 -14 101 -22
125 -73 295 -124 412 -44 102 -159 301 -178 308 -18 7 -132 -59 -215 -126
-107 -85 -197 -191 -258 -306 -117 -220 -219 -351 -295 -380 -51 -20 -70 -18
-209 26 -120 37 -174 81 -206 165 -17 46 -18 62 -10 100 11 49 97 237 111 242
5 2 9 10 9 17 0 7 38 89 84 182 132 267 189 427 221 624 14 91 21 319 9 319
-3 0 -44 -18 -90 -39 -173 -81 -333 -216 -451 -381 -33 -47 -108 -175 -166
-285 -217 -413 -464 -816 -621 -1012 -94 -116 -227 -237 -303 -274 -58 -29
-68 -31 -140 -27 -159 11 -350 140 -447 302 -98 163 -147 444 -127 719 11 148
62 478 85 558 27 91 77 165 133 200 31 19 44 21 121 16 120 -7 175 -29 239
-93 29 -29 53 -62 53 -73 0 -11 -9 -43 -20 -70 -61 -156 -109 -706 -91 -1056
9 -187 26 -239 97 -305 39 -36 47 -39 67 -29 59 32 154 135 287 314 121 163
213 311 430 690 357 624 489 788 764 953 118 71 159 82 304 82 155 -1 189 -8
258 -55 99 -68 134 -185 134 -445 0 -167 -38 -478 -63 -508 -24 -30 4 -17 96
43 184 121 355 149 581 98 117 -26 206 -77 284 -162 43 -47 113 -161 143 -233
13 -32 27 -58 30 -58 3 0 30 46 59 103 123 237 229 387 348 498 105 96 163
124 335 163 15 4 27 12 27 18 0 7 14 40 31 74 23 46 36 61 48 57 14 -4 14 -3
1 6 -12 8 -12 13 6 33 12 13 34 38 49 56 16 18 35 30 41 28 8 -3 11 0 8 8 -3
7 16 24 48 41 48 26 62 29 148 28 76 0 112 -5 180 -28 89 -29 174 -67 201 -91
25 -22 35 0 43 86 8 93 54 194 104 227 69 46 197 40 287 -12 68 -41 68 -39 50
-166 -37 -265 -4 -1134 50 -1324 26 -92 132 -185 193 -170 44 11 85 54 120
127 33 69 81 216 82 251 0 11 4 15 12 11 6 -4 8 -3 5 2 -6 10 9 68 170 672 22
79 42 139 46 135 5 -4 5 0 1 10 -3 9 1 39 9 65 28 86 45 166 51 242 10 110 17
160 25 156 3 -2 7 7 8 21 2 44 54 106 103 125 64 24 160 23 214 -3 49 -23 106
-72 106 -92 0 -6 -7 -73 -15 -147 -17 -160 -20 -330 -5 -330 6 0 14 8 17 18 4
9 24 46 46 82 153 251 347 362 606 348 l91 -6 -6 52 c-3 28 -10 80 -16 116 -5
36 -12 206 -15 379 l-6 314 -82 -7 c-45 -3 -97 -11 -116 -17 -44 -15 -86 -55
-94 -89 -4 -20 -15 -30 -41 -38 -43 -13 -49 -4 -42 69 5 50 40 105 60 93 5 -3
7 0 6 7 -6 26 91 61 204 73 l109 11 5 95 c5 91 9 129 34 319 12 89 43 194 60
199 6 2 10 9 10 16 0 7 14 25 30 41 26 25 40 30 98 33 57 3 72 0 101 -20 56
-38 73 -81 66 -163 -7 -88 -29 -218 -35 -211 -3 2 -6 -10 -6 -27 -1 -18 -5
-78 -9 -134 -6 -72 -5 -103 3 -103 12 0 252 55 297 68 58 17 140 62 189 102
54 45 62 47 88 23 23 -21 23 -38 -3 -74 -59 -83 -262 -164 -526 -210 l-71 -12
-7 -146 c-13 -241 8 -594 45 -804 6 -31 8 -62 4 -69 -4 -7 -3 -8 4 -4 8 5 12
-1 13 -16 1 -31 2 -38 34 -153 16 -55 29 -112 29 -127 1 -14 3 -24 6 -22 8 8
50 -128 43 -139 -3 -5 -2 -7 4 -4 5 3 26 -35 47 -86 20 -51 53 -119 73 -152
40 -67 120 -155 140 -155 16 0 56 64 60 95 6 41 140 471 162 520 5 11 22 56
37 100 16 44 34 91 41 105 7 14 13 31 13 38 0 6 5 12 11 12 5 0 8 4 5 9 -5 7
28 98 88 241 13 30 32 75 42 100 20 50 220 447 233 464 5 6 23 38 41 71 56
102 137 225 144 218 3 -3 6 -1 6 6 0 10 43 81 66 110 2 2 12 -2 21 -10 16 -13
17 -12 4 4 -11 14 -11 20 -1 32 11 13 15 13 23 3 6 -9 7 -8 3 5 -7 21 46 88
159 202 71 72 217 193 245 203 8 3 33 17 55 30 63 40 173 82 265 103 100 22
274 20 332 -4z m-4788 -246 c27 -23 35 -52 24 -84 -12 -33 -35 -47 -82 -47
-61 0 -96 68 -60 118 30 43 78 48 118 13z m-5187 -1123 c56 -20 108 -71 119
-114 4 -14 4 -52 1 -84 -9 -107 -85 -212 -185 -258 -48 -22 -63 -24 -128 -19
-78 7 -187 43 -245 82 -41 27 -42 35 -8 142 35 109 112 208 198 253 61 32 158
31 248 -2z"/>
<path d="M10619 6322 c-21 -4 -34 -33 -58 -130 -35 -134 -44 -257 -39 -520 5
-236 30 -516 48 -536 17 -18 89 54 118 117 51 110 62 135 62 143 0 4 15 56 34
114 18 58 50 158 71 222 21 65 40 116 44 114 9 -6 12 24 17 220 l5 180 -70 33
c-67 31 -185 53 -232 43z"/>
<path d="M8200 3380 c-13 -13 -55 -18 -205 -28 -244 -17 -255 -19 -255 -46 0
-35 42 -98 86 -129 48 -34 147 -53 217 -43 39 6 50 12 59 34 36 87 70 156 94
187 28 37 30 54 4 25z"/>
</g>
</svg>
