<?xml version="1.0" standalone="no"?>
<!DOCTYPE svg PUBLIC "-//W3C//DTD SVG 20010904//EN"
 "http://www.w3.org/TR/2001/REC-SVG-20010904/DTD/svg10.dtd">
<svg version="1.0" xmlns="http://www.w3.org/2000/svg"
 width="1920.000000pt" height="1920.000000pt" viewBox="0 0 1920.000000 1920.000000"
 preserveAspectRatio="xMidYMid meet">

<g transform="translate(0.000000,1920.000000) scale(0.100000,-0.100000)"
fill="#000000" stroke="none">
<path d="M9170 16910 c-1250 -81 -2388 -463 -3410 -1143 -1283 -855 -2246
-2113 -2730 -3566 -191 -573 -303 -1152 -341 -1771 -15 -240 -6 -810 15 -1030
99 -989 377 -1892 839 -2723 l54 -97 -104 -378 c-89 -326 -324 -1183 -759
-2772 -62 -227 -112 -415 -111 -416 1 -2 129 30 284 71 272 72 2230 585 2990
784 l372 98 213 -107 c805 -402 1617 -628 2558 -712 192 -17 867 -17 1060 0
307 27 541 60 810 113 2281 449 4203 2052 5067 4224 243 609 389 1223 460
1925 25 251 25 977 0 1235 -47 470 -121 867 -242 1290 -321 1120 -906 2112
-1740 2951 -348 350 -678 622 -1085 894 -319 214 -856 497 -1213 640 -648 258
-1294 412 -1997 476 -206 18 -793 26 -990 14z m830 -1171 c1476 -107 2839
-779 3839 -1894 365 -407 632 -803 876 -1300 509 -1036 690 -2188 524 -3345
-231 -1613 -1162 -3069 -2539 -3972 -1113 -730 -2448 -1048 -3772 -898 -611
70 -1194 232 -1758 490 -170 77 -295 144 -532 281 -103 60 -194 109 -203 109
-10 0 -497 -126 -1083 -280 -586 -154 -1068 -278 -1070 -275 -3 2 125 477 283
1055 l288 1050 -49 78 c-327 522 -510 899 -669 1377 -554 1669 -319 3474 643
4945 778 1191 1988 2059 3365 2415 601 155 1224 210 1857 164z"/>
<path d="M6997 13195 c-33 -8 -96 -34 -140 -57 -67 -34 -102 -62 -192 -153
-348 -350 -522 -698 -581 -1158 -20 -160 -15 -452 11 -592 67 -368 224 -757
460 -1139 148 -241 498 -719 723 -989 507 -607 1069 -1121 1632 -1492 446
-295 911 -511 1580 -735 406 -136 559 -164 880 -164 327 1 504 33 738 134 396
171 741 464 832 708 74 196 124 454 124 647 1 147 -10 185 -69 229 -49 37
-835 427 -1245 616 -265 123 -367 153 -446 132 -69 -19 -91 -38 -182 -162
-180 -243 -526 -656 -584 -695 -83 -56 -162 -52 -317 19 -53 24 -130 58 -171
76 -521 225 -1000 556 -1405 971 -226 232 -413 463 -603 749 -243 365 -251
417 -93 584 99 105 303 353 345 419 21 33 57 98 79 145 36 74 43 98 46 164 3
76 2 78 -68 242 -39 91 -173 412 -297 713 -124 301 -239 573 -256 603 -49 88
-94 136 -153 165 -54 27 -56 27 -322 31 -214 3 -280 1 -326 -11z"/>
</g>
</svg>
